# xmcd
#
# Track frame offsets:
#	150
#	14076
#	27559
#	39621
#	58446
#	75973
#	91620
#	122698
#	140130
#	157692
#	171531
#	185077
#	196244
#	216519
#	227900
#	245426
#	260381
#	278955
#	295906
#	310873
#
# Disc length: 4321 seconds
#
# Revision: 1
# Processed by: cddbd v1.5.2PL0 Copyright (c) Steve Scherf et al.
# Submitted via: audiograbber 1.82.02
#
DISCID=2c10df14
DTITLE=Various Artist - The Balladeers Vol 7
DYEAR=2005
DGENRE=Country
TTITLE0=Jeff Gibson - My Old Cooloolah Home
TTITLE1=Ashley Cook - Ride Ringer Ride
TTITLE2=David Croser - Teach Me, Show Me, I Can Do My Part
TTITLE3=Graham Rodger - Where The Cooper Flows
TTITLE4=Terry Bennetts - The Soldier With His Banjo
TTITLE5=John P Toomey - The Legend Of The Outback
TTITLE6=Ned Winter - Bear Dog
TTITLE7=Chris Strohfeld - Coster,s Ghost
TTITLE8=Fran Sargent - Bazza,s Way
TTITLE9=Des Morgan - Old Bindi
TTITLE10=Graham Butterworth - Just Passing Through
TTITLE11=John P Toomey - The Bushman,s Award
TTITLE12=Ron Bywater - Whe The Blue Misty Mountains Turn To Gold
TTITLE13=Graeme Coates - Two Old Mates
TTITLE14=Dorrie Mulier - Old Jim
TTITLE15=Merve Webster - The Man Who Had Tried
TTITLE16=Pete Smith - Shadow Of Mr Lindesay
TTITLE17=Peter Coad - The Wilds Of A Nation
TTITLE18=Amos Morris - The Last Goodbye
TTITLE19=Coad Sisters - The Man From The Never Never
EXTD=
EXTT0=
EXTT1=
EXTT2=
EXTT3=
EXTT4=
EXTT5=
EXTT6=
EXTT7=
EXTT8=
EXTT9=
EXTT10=
EXTT11=
EXTT12=
EXTT13=
EXTT14=
EXTT15=
EXTT16=
EXTT17=
EXTT18=
EXTT19=
PLAYORDER=
